<mxfile host="app.diagrams.net" modified="2023-04-03T13:25:06.179Z" agent="Mozilla/5.0 (X11; Linux x86_64) AppleWebKit/537.36 (KHTML, like Gecko) Chrome/111.0.0.0 Safari/537.36" etag="_ZWAIIY52sT72AlwwYYN" version="21.1.4" type="device">
  <diagram name="Page-1" id="_f4VzrPy5DZSsk0ZUHyI">
    <mxGraphModel dx="1434" dy="709" grid="1" gridSize="10" guides="1" tooltips="1" connect="1" arrows="1" fold="1" page="1" pageScale="1" pageWidth="1100" pageHeight="850" math="0" shadow="0">
      <root>
        <mxCell id="0" />
        <mxCell id="1" parent="0" />
        <mxCell id="rS-M0QUFw4t_3mWJrSY5-4" style="edgeStyle=orthogonalEdgeStyle;rounded=0;orthogonalLoop=1;jettySize=auto;html=1;entryX=0.5;entryY=0;entryDx=0;entryDy=0;" parent="1" source="rS-M0QUFw4t_3mWJrSY5-1" target="rS-M0QUFw4t_3mWJrSY5-2" edge="1">
          <mxGeometry relative="1" as="geometry" />
        </mxCell>
        <mxCell id="rS-M0QUFw4t_3mWJrSY5-1" value="new instance" style="rounded=1;whiteSpace=wrap;html=1;" parent="1" vertex="1">
          <mxGeometry x="270" y="120" width="150" height="60" as="geometry" />
        </mxCell>
        <mxCell id="rS-M0QUFw4t_3mWJrSY5-5" style="edgeStyle=orthogonalEdgeStyle;rounded=0;orthogonalLoop=1;jettySize=auto;html=1;" parent="1" source="rS-M0QUFw4t_3mWJrSY5-2" target="rS-M0QUFw4t_3mWJrSY5-3" edge="1">
          <mxGeometry relative="1" as="geometry" />
        </mxCell>
        <mxCell id="rS-M0QUFw4t_3mWJrSY5-27" style="edgeStyle=orthogonalEdgeStyle;rounded=0;orthogonalLoop=1;jettySize=auto;html=1;entryX=0;entryY=0.5;entryDx=0;entryDy=0;entryPerimeter=0;" parent="1" source="rS-M0QUFw4t_3mWJrSY5-2" target="rS-M0QUFw4t_3mWJrSY5-21" edge="1">
          <mxGeometry relative="1" as="geometry" />
        </mxCell>
        <mxCell id="rS-M0QUFw4t_3mWJrSY5-2" value="get to EATING ZONE" style="rounded=1;whiteSpace=wrap;html=1;" parent="1" vertex="1">
          <mxGeometry x="270" y="250" width="150" height="60" as="geometry" />
        </mxCell>
        <mxCell id="rS-M0QUFw4t_3mWJrSY5-7" style="edgeStyle=orthogonalEdgeStyle;rounded=0;orthogonalLoop=1;jettySize=auto;html=1;entryX=0;entryY=0.5;entryDx=0;entryDy=0;" parent="1" source="rS-M0QUFw4t_3mWJrSY5-3" target="rS-M0QUFw4t_3mWJrSY5-2" edge="1">
          <mxGeometry relative="1" as="geometry">
            <mxPoint x="345" y="520" as="targetPoint" />
            <Array as="points">
              <mxPoint x="345" y="520" />
              <mxPoint x="130" y="520" />
              <mxPoint x="130" y="280" />
            </Array>
          </mxGeometry>
        </mxCell>
        <mxCell id="rS-M0QUFw4t_3mWJrSY5-24" style="edgeStyle=orthogonalEdgeStyle;rounded=0;orthogonalLoop=1;jettySize=auto;html=1;entryX=0;entryY=0.5;entryDx=0;entryDy=0;entryPerimeter=0;" parent="1" source="rS-M0QUFw4t_3mWJrSY5-3" target="rS-M0QUFw4t_3mWJrSY5-17" edge="1">
          <mxGeometry relative="1" as="geometry" />
        </mxCell>
        <mxCell id="rS-M0QUFw4t_3mWJrSY5-3" value="rest at REST ZONE" style="rounded=1;whiteSpace=wrap;html=1;" parent="1" vertex="1">
          <mxGeometry x="270" y="390" width="150" height="60" as="geometry" />
        </mxCell>
        <mxCell id="rS-M0QUFw4t_3mWJrSY5-15" value="3s - 5s" style="text;html=1;align=center;verticalAlign=middle;resizable=0;points=[];autosize=1;strokeColor=none;fillColor=none;" parent="1" vertex="1">
          <mxGeometry x="360" y="225" width="60" height="30" as="geometry" />
        </mxCell>
        <mxCell id="rS-M0QUFw4t_3mWJrSY5-16" value="4s" style="text;html=1;align=center;verticalAlign=middle;resizable=0;points=[];autosize=1;strokeColor=none;fillColor=none;" parent="1" vertex="1">
          <mxGeometry x="370" y="365" width="40" height="30" as="geometry" />
        </mxCell>
        <mxCell id="rS-M0QUFw4t_3mWJrSY5-31" style="rounded=0;orthogonalLoop=1;jettySize=auto;html=1;entryX=0;entryY=0.5;entryDx=0;entryDy=0;exitX=1;exitY=0.5;exitDx=0;exitDy=0;exitPerimeter=0;" parent="1" source="rS-M0QUFw4t_3mWJrSY5-17" target="rS-M0QUFw4t_3mWJrSY5-28" edge="1">
          <mxGeometry relative="1" as="geometry" />
        </mxCell>
        <mxCell id="rS-M0QUFw4t_3mWJrSY5-17" value="threat?" style="strokeWidth=2;html=1;shape=mxgraph.flowchart.decision;whiteSpace=wrap;" parent="1" vertex="1">
          <mxGeometry x="540" y="370" width="160" height="100" as="geometry" />
        </mxCell>
        <mxCell id="rS-M0QUFw4t_3mWJrSY5-30" style="rounded=0;orthogonalLoop=1;jettySize=auto;html=1;entryX=0;entryY=0.5;entryDx=0;entryDy=0;exitX=1;exitY=0.5;exitDx=0;exitDy=0;exitPerimeter=0;" parent="1" source="rS-M0QUFw4t_3mWJrSY5-21" target="rS-M0QUFw4t_3mWJrSY5-28" edge="1">
          <mxGeometry relative="1" as="geometry" />
        </mxCell>
        <mxCell id="rS-M0QUFw4t_3mWJrSY5-21" value="threat?" style="strokeWidth=2;html=1;shape=mxgraph.flowchart.decision;whiteSpace=wrap;" parent="1" vertex="1">
          <mxGeometry x="540" y="230" width="160" height="100" as="geometry" />
        </mxCell>
        <mxCell id="rS-M0QUFw4t_3mWJrSY5-36" style="edgeStyle=orthogonalEdgeStyle;rounded=0;orthogonalLoop=1;jettySize=auto;html=1;entryX=0.5;entryY=0;entryDx=0;entryDy=0;" parent="1" source="rS-M0QUFw4t_3mWJrSY5-28" target="rS-M0QUFw4t_3mWJrSY5-2" edge="1">
          <mxGeometry relative="1" as="geometry">
            <Array as="points">
              <mxPoint x="885" y="210" />
              <mxPoint x="345" y="210" />
            </Array>
          </mxGeometry>
        </mxCell>
        <mxCell id="rS-M0QUFw4t_3mWJrSY5-28" value="shelter" style="rounded=1;whiteSpace=wrap;html=1;" parent="1" vertex="1">
          <mxGeometry x="810" y="420" width="150" height="60" as="geometry" />
        </mxCell>
        <mxCell id="rS-M0QUFw4t_3mWJrSY5-29" value="until threat&lt;br&gt;goes away" style="text;html=1;align=center;verticalAlign=middle;resizable=0;points=[];autosize=1;strokeColor=none;fillColor=none;" parent="1" vertex="1">
          <mxGeometry x="890" y="380" width="80" height="40" as="geometry" />
        </mxCell>
        <mxCell id="rS-M0QUFw4t_3mWJrSY5-37" value="Flowchart - Hormiga crÃ­a" style="text;html=1;align=center;verticalAlign=middle;resizable=0;points=[];autosize=1;strokeColor=none;fillColor=none;" parent="1" vertex="1">
          <mxGeometry x="495" y="10" width="150" height="30" as="geometry" />
        </mxCell>
        <mxCell id="rS-M0QUFw4t_3mWJrSY5-38" value="" style="shape=link;html=1;rounded=0;" parent="1" edge="1">
          <mxGeometry width="100" relative="1" as="geometry">
            <mxPoint x="450" y="300" as="sourcePoint" />
            <mxPoint x="510" y="260" as="targetPoint" />
          </mxGeometry>
        </mxCell>
        <mxCell id="rS-M0QUFw4t_3mWJrSY5-40" value="" style="shape=link;html=1;rounded=0;" parent="1" edge="1">
          <mxGeometry width="100" relative="1" as="geometry">
            <mxPoint x="450" y="440" as="sourcePoint" />
            <mxPoint x="510" y="400" as="targetPoint" />
          </mxGeometry>
        </mxCell>
      </root>
    </mxGraphModel>
  </diagram>
</mxfile>
